<svg width="278" height="374" viewBox="0 0 278 374" fill="none" xmlns="http://www.w3.org/2000/svg">
<path fill-rule="evenodd" clip-rule="evenodd" d="M130.551 161.664L127.557 169.043L129.207 192.432L130.434 192.623C143.398 194.626 152.207 195.638 156.862 195.659L157.006 195.659C161.693 195.659 167.31 194.615 173.856 192.528L174.154 192.432L174.91 174.919H173.127L169.904 167.385L169.907 167.382C169.942 167.443 169.979 167.501 170.018 167.558C171.362 169.54 172.141 167.939 175.298 168.64C179.079 169.479 180.757 173.288 184.085 176.135C185.63 177.457 188.874 178.08 190.426 178.988L192.056 179.943C197.165 182.947 203.036 186.596 206.119 191.35C209.733 196.922 212.225 202.211 214.525 208.41C219.483 221.772 222.925 235.407 225.384 249.429C227.877 263.641 229.375 278.029 230.519 292.406C231.049 299.068 231.498 305.736 231.871 312.409L231.963 314.077C232.159 317.708 231.989 321.261 228.678 323.496C226.305 325.098 223.156 325.342 220.373 325.506L220.222 325.515C199.642 326.718 179.063 327.913 158.483 329.11L127.614 330.909C122.478 331.209 117.341 331.507 112.205 331.803L99.6674 332.525C93.7583 332.86 87.8421 333.15 81.9251 333.116C74.4807 333.072 67.0679 332.524 59.6922 331.535L59.0415 331.447C54.4012 330.808 47.6729 329.192 46.8394 323.644C46.7197 322.847 47.423 322.35 48.0135 322.464C47.8192 321.561 47.6986 320.657 47.5833 319.871C47.0887 316.514 46.7782 313.136 46.6247 309.747C46.3169 302.965 46.5763 296.152 47.2564 289.4C48.3814 278.229 49.9586 267.077 51.5882 255.965L51.951 253.496C53.6844 241.723 55.7481 229.969 58.9774 218.501C61.9605 207.907 66.6143 196.886 73.0178 190.188C79.4213 183.489 88.5513 177.669 97.9326 174.104C98.745 173.795 114.887 170.271 115.974 170.785L116.169 170.632C119.388 168.099 123.979 163.65 128.705 165.051L128.716 165.033C128.828 164.829 129.264 163.462 129.867 161.664L130.551 161.664Z" fill="#8FA7DF"/>
<path fill-rule="evenodd" clip-rule="evenodd" d="M133.965 151.844C137.875 146.902 141.996 145.332 148.086 145.7C152.215 145.553 156.334 146.621 159.831 148.982C163.035 150.651 165.876 152.948 167.904 155.906C169.638 158.434 168.32 164.682 169.904 167.385C169.889 167.679 169.881 167.948 169.881 168.19C169.881 170.529 171.514 173.14 174.78 176.022L174.91 176.136V193.135C169.419 194.818 162.621 195.66 154.515 195.66C146.53 195.66 138.225 194.323 129.599 191.65L129.207 191.528L127.558 173.052L129.207 167.94L129.207 163.658L129.844 161.742C130.973 158.375 132.701 153.442 133.965 151.844Z" fill="#D08B5B"/>
<path fill-rule="evenodd" clip-rule="evenodd" d="M129.207 191.527C129.207 191.527 143.705 195.736 153.603 195.736C163.5 195.736 174.154 191.527 174.154 191.527L172.426 330.079L144.608 330.417L129.207 191.527Z" fill="#9FD8E5"/>
<path fill-rule="evenodd" clip-rule="evenodd" d="M81.4809 252.023C81.3737 251.823 81.6224 251.644 81.7873 251.788C85.5347 255.066 87.4966 260.331 87.908 265.198C88.3438 270.358 87.7259 275.702 87.4897 280.86C87.2269 286.606 86.9908 292.354 86.6699 298.097C86.3442 303.924 85.9933 309.749 85.6925 315.577L85.0159 328.687C84.9439 330.085 85.0998 331.803 84.5619 333.107C83.7284 335.128 81.2525 334.815 80.7322 333.126L80.7159 333.07L80.6685 333.107C80.2094 331.584 80.553 329.776 80.6308 328.202L81.3397 313.878C81.8406 303.753 82.2873 293.628 82.8253 283.506L83.0082 280.131C83.2597 275.589 83.4526 271.058 83.6075 266.518L83.6577 265.004C83.8048 260.444 83.688 256.14 81.4809 252.023ZM172.322 167.974C174.41 167.776 175.987 168.466 177.882 169.193C178.708 169.51 179.49 169.875 180.282 170.254C181.273 170.728 181.911 171.566 182.522 172.452L182.848 172.93C185.391 176.644 187.102 180.929 189.032 184.973C191.29 189.703 193.57 194.423 195.779 199.176L196.87 201.517C197.415 202.688 197.958 203.86 198.494 205.035L199.419 207.08C200.348 209.155 201.181 211.349 199.857 213.489C198.625 215.48 196.442 217.019 194.713 218.558C193.27 219.842 191.828 221.125 190.385 222.408C193.367 225.386 195.37 229.136 196.547 233.157C198.219 232.462 200.261 232.329 201.99 232.028C204.41 231.608 204.707 235.261 202.423 235.216C200.735 235.183 198.756 235.355 197.026 235.001C197.326 236.322 197.545 237.664 197.683 239.009C198.411 246.058 196.821 253.148 195.164 259.969L195.028 260.529C193.228 267.911 191.521 275.313 189.994 282.757C188.464 290.216 187.088 297.707 185.866 305.223C184.622 312.873 183.742 320.565 182.796 328.256C182.653 329.42 181.918 330.418 180.628 330.418C179.553 330.418 178.325 329.418 178.46 328.256C179.436 319.881 180.82 311.55 182.195 303.233C184.564 288.909 187.544 274.709 190.974 260.603L191.573 258.147C193.116 251.776 194.516 245.211 193.742 238.639C193.111 233.288 190.867 227.582 186.431 224.259L186.296 224.159C185.26 223.401 184.861 221.952 185.882 220.955C186.531 220.32 187.181 219.686 187.832 219.052L191.737 215.252L192.524 214.484C193.18 213.845 193.84 213.21 194.519 212.595C194.93 212.222 196.045 211.512 196.126 210.9C196.179 210.5 195.705 209.798 195.512 209.43L194.631 207.657C194.13 206.646 193.645 205.627 193.157 204.61C192.144 202.503 191.117 200.402 190.126 198.285L184.174 185.571C182.495 181.985 181 178.198 178.805 174.882L178.372 174.236C178.01 173.692 177.691 173.168 177.463 172.502C177.243 171.862 176.968 171.158 176.562 170.612C175.611 169.329 173.794 168.602 172.274 168.333C172.054 168.294 172.134 167.992 172.322 167.974ZM126.547 164.634C126.679 164.634 126.699 164.823 126.577 164.859C124.743 165.409 122.99 166.296 121.56 167.577C120.875 168.19 120.186 168.886 119.764 169.711C119.602 170.026 119.513 170.36 119.447 170.706L119.426 170.821C119.317 171.446 119.161 171.794 118.843 172.294L118.788 172.379C116.971 175.177 115.697 178.285 114.532 181.397L111.996 188.182L109.462 194.968C108.645 197.154 107.828 199.341 107.011 201.527C106.56 202.734 106.096 203.936 105.632 205.138C105.431 205.659 105.216 206.176 105.032 206.703C105.007 206.775 104.927 207.209 104.866 207.315L104.887 207.351C105.398 208.208 106.761 208.924 107.534 209.547L110.195 211.692C112.093 213.221 114.039 214.708 115.879 216.306C117.035 217.309 116.316 219.105 115.027 219.524C112.866 220.226 110.75 221.066 108.622 221.859C107.762 222.18 106.867 222.459 106.017 222.813L105.5 223.035C105.298 223.126 105.395 223.125 105.403 223.497C105.411 223.887 105.522 224.293 105.586 224.676C106.303 228.996 107.062 233.31 107.864 237.615C110.701 252.842 114.09 267.957 117.956 282.955C119.908 290.53 122.002 298.067 123.997 305.63C125.987 313.173 128.606 320.608 131.106 327.995C131.812 330.079 128.498 330.976 127.81 328.901C124.928 320.213 122.292 311.448 119.569 302.71C114.732 287.184 110.921 271.321 107.549 255.42C105.878 247.539 104.35 239.627 102.966 231.691C102.704 230.189 102.447 228.685 102.195 227.181L101.828 224.968C101.577 223.391 101.434 221.749 102.663 220.501C103.864 219.282 105.925 218.851 107.505 218.279L107.62 218.237C108.625 217.863 109.638 217.503 110.647 217.131C109.161 215.965 107.693 214.773 106.211 213.608C105.015 212.667 103.801 211.746 102.622 210.785C101.65 209.991 100.858 208.973 100.757 207.683C100.653 206.364 101.22 205.14 101.677 203.931L101.721 203.814C102.17 202.607 102.62 201.4 103.081 200.197L105.937 192.752C107.752 188.021 109.49 183.251 111.399 178.557C112.154 176.699 112.977 174.87 113.95 173.114C114.419 172.267 114.922 171.439 115.468 170.639C116.08 169.743 116.636 169.306 117.585 168.812C119.102 168.021 120.292 166.695 121.816 165.88C123.311 165.08 124.849 164.653 126.547 164.634ZM131.471 156.194C131.529 156.095 131.683 156.139 131.685 156.252C131.725 158.603 131.164 161.006 130.819 163.331C130.473 165.664 130.362 168.127 129.861 170.435C129.851 170.543 129.83 170.649 129.8 170.753L129.776 170.832C129.565 171.479 129.015 172.027 128.34 172.198C128.553 173.37 128.753 174.544 128.921 175.725C129.209 177.753 129.473 179.785 129.732 181.817L130.042 184.256C130.335 186.555 130.62 188.855 130.902 191.155C131.618 191.453 132.349 191.7 133.098 191.913C134.822 192.405 136.588 192.605 138.367 192.779C141.99 193.133 145.641 193.297 149.277 193.499L150.056 193.542C154.144 193.776 158.254 193.817 162.331 193.399C164.353 193.192 166.359 192.844 168.331 192.351C169.332 192.1 170.306 191.726 171.306 191.481C171.638 191.4 171.934 191.212 172.266 191.012C172.414 190.827 172.621 190.686 172.891 190.631L172.964 190.619L173.036 190.608L173.061 190.597L173.059 190.605C173.264 190.577 173.458 190.577 173.641 190.602C173.714 188.809 173.793 187.016 173.892 185.223C174.158 180.408 174.893 175.386 173.912 170.613C173.88 170.452 174.099 170.396 174.156 170.546C176.079 175.599 175.863 181.124 175.96 186.442C176.055 191.642 175.998 196.847 175.972 202.048C176.345 202.207 176.679 202.422 176.943 202.724C177.47 203.326 177.622 204.374 176.943 204.955C176.642 205.213 176.309 205.392 175.955 205.516C175.936 210.035 175.904 214.555 175.859 219.074C176.721 219.738 176.802 221.314 175.826 221.969C175.664 236.604 175.397 251.24 175.176 265.873L174.713 296.573C174.651 300.663 174.549 304.753 174.512 308.843L174.541 308.855L174.644 308.902C174.816 308.983 175.073 309.114 175.127 309.247C175.141 309.283 175.144 309.306 175.143 309.324C175.425 309.364 175.706 309.497 175.948 309.727C176.547 310.294 176.425 311.148 175.948 311.726L175.821 311.88C175.523 312.24 174.959 312.378 174.498 312.305C174.502 314.858 174.519 317.411 174.511 319.964C174.508 320.743 174.496 321.523 174.483 322.303L174.451 324.172C174.429 325.239 174.334 326.595 173.238 327.074C172.002 327.615 170.893 327.172 170.392 325.92C170.257 325.581 170.286 325.265 170.335 324.93C170.32 324.426 170.241 323.842 170.25 323.374L170.291 321.425C170.298 321.125 170.31 320.825 170.318 320.524L170.283 320.528C165.889 320.74 161.464 320.637 157.063 320.634L155.106 320.637C153.473 320.638 151.836 320.629 150.205 320.567L149.594 320.541C148.373 320.484 147.089 320.466 145.824 320.357C145.985 321.652 146.136 322.949 146.27 324.246C146.397 325.476 145.123 326.522 143.987 326.522C142.638 326.522 141.866 325.464 141.705 324.246C140.942 318.499 140.63 312.699 139.901 306.948C139.249 301.797 138.683 296.635 138.108 291.475L137.916 289.754C135.811 270.975 133.768 252.188 131.813 233.393L130.903 224.606C129.984 215.75 129.06 206.894 128.28 198.025C127.834 192.954 127.423 187.883 127.037 182.807C126.753 179.078 126.575 175.37 126.459 171.649C126.001 171.18 125.772 170.495 125.975 169.787C126.093 169.374 126.231 168.964 126.376 168.554C126.367 168.151 126.358 167.749 126.35 167.345C126.343 166.964 126.731 166.767 127.042 166.83C127.608 165.466 128.23 164.113 128.75 162.762C129.59 160.574 130.284 158.218 131.471 156.194ZM84.5115 179.834C93.3015 174.343 103.765 170.391 114.244 170.816C114.483 170.826 114.55 171.188 114.302 171.243C108.712 172.487 103.061 174.003 97.7691 176.208C92.4616 178.421 87.4151 181.4 82.9203 184.979C74.6273 191.584 68.1814 200.175 63.937 209.858C61.4509 215.531 59.7083 221.52 58.1866 227.511C56.5764 233.851 55.2493 240.26 54.1458 246.708C51.9664 259.443 50.6975 272.318 50.0223 285.216C49.3354 298.336 49.6186 311.465 49.1286 324.587C49.044 326.861 45.7843 326.816 45.6186 324.587C44.5086 309.669 45.1236 294.512 46.1502 279.603C47.0732 266.201 48.6852 252.827 51.2809 239.641L51.507 238.498C53.9336 226.298 56.8605 213.803 62.7269 202.754C67.7353 193.322 75.4674 185.485 84.5115 179.834ZM206.574 238.142C206.62 238.011 206.793 238.012 206.84 238.142C207.842 240.938 207.878 244.093 208.144 247.041L208.165 247.267C208.42 249.956 208.613 252.648 208.792 255.342L208.858 256.352C209.576 267.343 210.473 278.321 211.825 289.254C213.172 300.146 214.994 310.962 216.963 321.756C217.183 322.958 216.649 324.182 215.385 324.528C214.27 324.833 212.84 324.149 212.604 322.954C211.381 316.759 210.392 310.555 209.51 304.305C207.957 293.301 206.798 282.245 206.053 271.157C205.679 265.588 205.449 260.021 205.357 254.44C205.315 251.851 205.382 249.255 205.521 246.668L205.554 246.072C205.707 243.428 205.691 240.663 206.574 238.142ZM111.592 308.146C111.71 308.083 111.855 308.213 111.781 308.334C110.079 311.091 107.776 313.469 105.551 315.813C103.224 318.262 100.955 320.786 98.5817 323.187C96.8667 324.922 94.108 322.124 95.918 320.532C98.4628 318.294 101.123 316.168 103.713 313.98L104.845 313.023C106.969 311.234 109.156 309.462 111.592 308.146ZM192.433 306.765C192.306 306.524 192.596 306.328 192.794 306.488C194.166 307.601 195.397 308.928 196.723 310.103C198.035 311.266 199.397 312.351 200.796 313.41C202.201 314.472 203.637 315.493 205.111 316.458C206.334 317.259 207.594 317.9 208.875 318.565C209.468 318.641 210.017 318.931 210.456 319.481C211.151 320.351 211.225 321.992 210.261 322.747L210.088 322.882C208.963 323.764 207.628 323.871 206.521 322.882C205.284 321.779 204.115 320.564 202.928 319.397L202.571 319.049C201.295 317.813 200.05 316.536 198.877 315.202L197.814 313.998C195.843 311.757 193.791 309.342 192.433 306.765ZM186.109 177.576C185.881 177.426 186.021 177.02 186.303 177.117L186.82 177.295C188.981 178.043 191.204 178.873 193.166 180.025C195.273 181.263 197.22 182.739 199.079 184.321C202.928 187.596 206.202 191.624 208.985 195.822C214.568 204.246 218.021 213.893 220.809 223.546C223.782 233.838 226.07 244.352 227.939 254.896C229.838 265.611 231.303 276.423 232.265 287.262C232.74 292.602 233.058 297.944 233.218 303.302C233.301 306.059 233.298 308.813 233.275 311.57C233.269 312.279 233.274 312.988 233.282 313.697L233.309 315.823C233.323 317.168 233.485 318.581 233.164 319.894C232.648 322.009 229.142 321.614 229.257 319.453C229.151 318.734 229.147 317.991 229.174 317.247C229.158 317.15 229.14 317.053 229.12 316.953C229.062 316.667 229.111 316.403 229.224 316.176C229.242 315.818 229.258 315.463 229.264 315.114C229.287 313.695 229.285 312.281 229.246 310.862C229.163 307.869 229.044 304.877 228.923 301.886C228.682 295.909 228.347 289.929 227.861 283.966C226.17 263.212 222.599 242.339 216.601 222.372C213.816 213.1 209.975 203.998 204.468 195.986C202.023 192.429 199.265 189.143 196.207 186.094C193.13 183.026 189.739 179.973 186.109 177.576ZM144.608 311.368L145.024 314.365C145.232 315.863 145.437 317.363 145.633 318.863C146.959 318.682 148.316 318.606 149.595 318.493C151.833 318.295 154.086 318.2 156.331 318.107C160.972 317.917 165.637 317.585 170.283 317.609C170.331 317.609 170.376 317.612 170.421 317.616L170.652 311.702L167.387 311.697C164.621 311.693 161.856 311.669 159.09 311.646C156.599 311.624 154.107 311.621 151.617 311.569L150.549 311.544C148.661 311.493 146.575 311.598 144.608 311.368ZM170.925 302.784C170.792 302.8 170.656 302.813 170.512 302.819C169.866 302.846 169.214 302.827 168.567 302.833C167.189 302.845 165.812 302.854 164.434 302.854C161.678 302.853 158.923 302.87 156.168 302.903C153.332 302.937 150.497 302.986 147.661 302.992C146.286 302.994 144.916 302.958 143.543 302.92C143.765 304.866 143.997 306.811 144.253 308.751C146.387 308.464 148.681 308.609 150.767 308.589L151.037 308.585C153.883 308.537 156.731 308.573 159.578 308.576C162.506 308.579 165.434 308.589 168.363 308.613L170.769 308.633L170.773 308.512C170.844 306.605 170.889 304.695 170.925 302.784ZM142.484 293.473C142.751 295.77 143.001 298.072 143.257 300.372C143.426 300.346 143.598 300.324 143.773 300.305C145.149 300.162 146.523 300.039 147.904 299.954C150.657 299.784 153.41 299.694 156.168 299.62C159.004 299.544 161.84 299.486 164.677 299.446C166.055 299.427 167.432 299.429 168.81 299.438C169.457 299.443 170.11 299.422 170.755 299.466C170.832 299.471 170.906 299.479 170.979 299.487L171.027 296.033C171.036 295.457 171.044 294.882 171.054 294.306C168.924 294.437 166.758 294.387 164.629 294.388L164.139 294.389C161.464 294.401 158.789 294.365 156.115 294.309C153.356 294.252 150.603 294.162 147.849 293.986C146.734 293.915 145.626 293.82 144.516 293.698L143.961 293.635C143.479 293.578 142.981 293.532 142.484 293.473ZM171.273 283.725C166.143 284.131 161.04 284.301 155.897 284.351L155.125 284.358C150.58 284.392 145.997 284.579 141.441 284.459C141.713 286.814 141.985 289.168 142.258 291.522C142.911 291.492 143.566 291.492 144.204 291.469C145.501 291.422 146.794 291.41 148.092 291.407C150.766 291.401 153.44 291.424 156.115 291.419C158.871 291.413 161.626 291.367 164.382 291.315C166.616 291.273 168.873 291.106 171.114 291.112L171.273 283.725ZM171.49 273.68C170.896 273.877 170.194 273.89 169.424 273.925L167.439 274.024C166.518 274.068 165.598 274.111 164.677 274.144C161.608 274.256 158.538 274.361 155.469 274.458C152.324 274.558 149.163 274.616 146.017 274.517C144.476 274.468 142.948 274.388 141.412 274.26C141.032 274.228 140.645 274.207 140.257 274.18C140.615 277.3 140.974 280.419 141.334 283.538C145.868 282.983 150.438 282.637 154.966 282.064L159.061 281.542C163.154 281.022 167.244 280.511 171.352 280.08L171.49 273.68ZM171.709 263.524C170.837 263.739 169.843 263.728 169.005 263.781L168.85 263.792C167.263 263.912 165.672 263.972 164.081 264.011C160.964 264.087 157.844 264.126 154.725 264.145L152.85 264.156C150.35 264.171 147.851 264.177 145.35 264.119C143.746 264.082 142.146 264.004 140.543 263.924C140.063 263.899 139.572 263.884 139.079 263.859C139.414 266.812 139.753 269.765 140.091 272.718C140.617 272.635 141.146 272.571 141.651 272.486C142.942 272.269 144.232 272.095 145.533 271.94C148.351 271.603 151.184 271.361 154.015 271.156C156.922 270.946 159.831 270.769 162.739 270.565L164.798 270.421C165.484 270.373 166.17 270.327 166.857 270.285C168.03 270.214 169.393 270.295 170.556 270.04C170.871 269.909 171.221 269.879 171.571 269.954L171.709 263.524ZM171.973 251.637C171.671 252.019 171.221 252.219 170.683 252.288C167.884 252.65 165.012 252.708 162.189 252.879L161.692 252.91C158.777 253.102 155.86 253.252 152.943 253.406C149.947 253.565 146.951 253.694 143.952 253.799C142.678 253.843 141.399 253.848 140.124 253.832L139.577 253.823C139.054 253.815 138.505 253.816 137.956 253.798C138.26 256.56 138.567 259.321 138.879 262.082C139.439 262.021 139.999 261.975 140.543 261.917C142.145 261.749 143.745 261.582 145.35 261.456C148.392 261.217 151.437 261.073 154.485 260.923C157.603 260.769 160.724 260.666 163.842 260.521C165.355 260.451 166.866 260.363 168.374 260.224C169.431 260.128 170.686 259.769 171.788 259.901C171.848 257.146 171.911 254.391 171.973 251.637ZM172.219 240.987C172.171 241.061 172.115 241.132 172.047 241.199C170.815 242.413 169.296 242.319 167.663 242.446L167.563 242.454C165.962 242.589 164.361 242.716 162.758 242.831C159.555 243.062 156.346 243.223 153.138 243.367C149.855 243.514 146.551 243.615 143.265 243.548C141.16 243.505 138.957 243.513 136.81 243.309C137.14 246.35 137.471 249.391 137.805 252.432C138.409 252.319 139.016 252.232 139.592 252.142C141.042 251.914 142.493 251.686 143.951 251.518C146.865 251.184 149.78 250.871 152.7 250.589C155.197 250.348 157.693 250.103 160.192 249.882L161.691 249.753C164.673 249.503 167.692 249.091 170.683 249.03C171.176 249.02 171.733 249.287 172.016 249.709C172.082 246.802 172.15 243.895 172.219 240.987ZM172.426 232.366C171.664 232.459 170.844 232.406 170.141 232.429C168.365 232.487 166.588 232.54 164.812 232.593L154.152 232.906C150.522 233.013 146.88 233.093 143.249 233.042C141.652 233.019 140.048 233.017 138.451 232.93L137.919 232.898C137.262 232.854 136.456 232.848 135.668 232.769L136.598 241.353C138.734 241.045 140.935 240.93 143.053 240.75L143.506 240.71C146.629 240.426 149.768 240.239 152.897 240.028C156.107 239.811 159.312 239.548 162.518 239.279C164.12 239.145 165.722 239.011 167.323 238.864L167.521 238.844C169.033 238.687 170.455 238.352 171.794 239.241C171.99 239.371 172.144 239.545 172.249 239.739C172.307 237.281 172.365 234.824 172.426 232.366ZM172.675 222.348C166.182 222.608 159.689 222.806 153.192 222.893C149.535 222.942 145.883 222.907 142.226 222.831C140.641 222.798 139.042 222.722 137.458 222.601L136.864 222.554C136.111 222.491 135.319 222.445 134.531 222.369C134.857 225.321 135.18 228.273 135.501 231.225C136.276 231.081 137.086 231.015 137.765 230.929L137.92 230.908C139.607 230.677 141.311 230.542 143.007 230.393C146.31 230.103 149.629 229.916 152.941 229.757C156.332 229.594 159.724 229.456 163.116 229.306L166.508 229.155C167.073 229.13 167.638 229.105 168.204 229.082C169.012 229.048 169.819 229.015 170.627 228.982C171.025 228.965 171.439 228.911 171.838 228.932L171.952 228.917C172.004 228.91 172.05 228.905 172.093 228.9C172.201 228.818 172.318 228.75 172.442 228.698L172.517 228.669L172.675 222.348ZM133.467 212.854C133.768 215.511 134.066 218.168 134.36 220.826C135.286 220.721 136.223 220.663 137.108 220.584C138.89 220.424 140.681 220.285 142.47 220.203L146.043 220.037C148.426 219.927 150.808 219.821 153.192 219.735C159.717 219.497 166.241 219.225 172.762 218.893C172.808 217.09 172.855 215.288 172.904 213.485C172.591 213.819 172.139 214.039 171.544 214.038C164.699 214.019 157.847 214.059 151.002 213.947C147.576 213.89 144.154 213.808 140.731 213.632C139.057 213.547 137.373 213.372 135.711 213.143C135.002 213.045 134.227 212.975 133.467 212.854ZM132.372 203.385C132.693 206.107 133.009 208.83 133.32 211.553C134.17 211.402 135.048 211.321 135.841 211.214C137.545 210.983 139.26 210.799 140.977 210.702C144.316 210.514 147.658 210.419 151.003 210.348C157.847 210.203 164.699 210.204 171.545 210.15C172.188 210.145 172.665 210.399 172.979 210.777C173.026 209.078 173.077 207.378 173.128 205.678C172.467 205.608 171.811 205.51 171.205 205.468C169.34 205.338 167.475 205.219 165.609 205.113C161.715 204.89 157.817 204.7 153.921 204.531C150.023 204.362 146.124 204.197 142.225 204.053L140.52 203.991C137.809 203.89 135.052 203.763 132.372 203.385ZM131.145 193.135C131.48 195.892 131.81 198.649 132.139 201.406L132.239 202.26C135.5 201.628 138.937 201.443 142.225 201.303C146.125 201.138 150.017 201.053 153.92 201.065C157.82 201.076 161.713 201.168 165.609 201.329C167.555 201.409 169.502 201.502 171.447 201.607C171.982 201.636 172.61 201.62 173.255 201.63C173.269 201.196 173.281 200.763 173.296 200.33C173.355 198.575 173.413 196.82 173.474 195.065C172.158 195.739 170.447 196.011 169.124 196.298L168.974 196.331C166.79 196.82 164.56 197.137 162.331 197.33C157.954 197.711 153.532 197.569 149.159 197.2L148.393 197.135C144.553 196.803 140.572 196.382 136.849 195.435C135.076 194.984 133.243 194.352 131.654 193.437C131.489 193.342 131.318 193.241 131.145 193.135ZM168.119 160.376C168.157 160.227 168.381 160.193 168.455 160.332C168.972 161.312 169.164 162.487 169.523 163.536C169.91 164.665 170.27 165.801 170.697 166.915C171.587 169.244 172.638 171.481 173.89 173.638C175.131 175.774 171.657 177.298 170.745 174.96C169.802 172.547 169.028 170.053 168.559 167.503C168.33 166.259 168.126 164.998 168.06 163.734C168.003 162.648 167.85 161.435 168.119 160.376Z" fill="black"/>
<path fill-rule="evenodd" clip-rule="evenodd" d="M193.254 113.003C193.156 107.538 193.049 101.964 192.236 96.5514C191.441 91.2602 189.253 86.4775 185.494 82.6353C177.511 74.4739 165.938 72.4805 155.166 70.6537L136.748 67.5302C131.129 66.5775 125.135 65.0546 119.458 66.4057C116.661 67.0715 114.285 68.6182 112.114 70.4482C110.021 72.2121 107.771 74.1063 106.353 76.4793C104.932 78.8558 104.444 81.6338 103.982 84.3216C103.461 87.3519 103.057 90.4059 102.769 93.4672C102.193 99.6005 102.114 105.78 102.532 111.926C102.735 114.907 103.057 117.879 103.468 120.839C103.672 122.306 103.902 123.77 104.163 125.229C104.239 125.659 104.298 126.135 104.376 126.616C103.795 128.267 103.465 129.976 103.492 131.678C103.57 136.692 107.806 139.849 112.077 141.544C114.553 142.527 117.142 143.194 119.575 144.292C122.135 145.447 123.877 147.319 125.627 149.454C128.964 153.527 132.73 157.187 137.031 160.241C146.149 166.717 157.698 169.779 168.761 167.455C171.416 166.897 174.094 166.031 176.48 164.726C178.999 163.348 180.893 161.352 182.484 158.991C185.438 154.609 187.556 149.675 189.158 144.654C190.793 139.532 191.953 134.401 192.586 129.061C193.216 123.737 193.349 118.36 193.254 113.003Z" fill="#D08B5B"/>
<path fill-rule="evenodd" clip-rule="evenodd" d="M134.481 48.4912C142.103 47.4438 152.622 50.8479 156.418 57.7116C174.539 53.4437 197.395 53.3039 212.33 67.5117C227.915 84.3654 208.34 106.587 195.36 111.597C196.305 116.185 194.831 145.58 184.405 158.691C176.13 169.8 156.861 174.927 147.945 161.658L147.875 161.549C146.92 160.016 147.743 160.066 148.723 161.205C157.454 168.876 169.326 169.007 178.474 160.912C195.619 146.115 193.851 109.835 185.693 88.8466C162.462 86.2976 137.589 93.3319 121.544 110.802L122.629 117.328C122.813 118.439 123.023 119.55 123.184 120.666C123.286 121.381 123.298 122.092 122.802 122.67C121.165 124.58 118.406 121.71 116.136 120.568C115.466 120.474 114.795 120.438 114.137 120.484C103.231 121.887 105.38 143.022 117.366 139.318C118.373 138.691 119.238 138.882 119.629 139.792C122.486 142.406 124.369 147.069 129.116 151.559C130.791 153.244 132.315 154.653 134.199 156.005C135.305 157.123 138.644 158.262 137.585 160.175C135.584 164.528 123.781 150.855 121.695 147.074C115.157 149.653 107.911 148.777 101.136 148.147C65.392 146.29 70.1637 108.649 99.462 84.8836C104.977 80.8274 111.062 77.5185 117.387 74.9722C118.25 74.6246 117.873 73.2081 116.997 73.5606C112.812 75.2457 108.732 77.2513 104.843 79.5727L104.837 78.1848C104.832 75.8473 104.868 73.4138 105.275 71.2781C105.478 69.7982 105.82 68.2175 106.346 67.0284C106.996 63.3828 117.183 50.8693 134.481 48.4912ZM113.66 125.336C114.212 124.812 115.242 125.437 115.734 125.421C116.99 125.593 118.184 126.123 119.115 126.777C119.729 127.121 120.16 127.444 120.52 127.742L120.53 127.739C120.527 127.739 120.524 127.742 120.521 127.742L120.555 127.765C121.079 128.137 122.997 130.233 121.785 129.669C121.695 129.552 121.602 129.439 121.509 129.329C121.499 129.344 121.485 129.359 121.469 129.373L121.537 129.474C122.567 131.022 120.788 129.391 120.514 128.958C120.502 128.968 120.487 128.975 120.472 128.983L120.829 129.416C120.879 129.478 120.918 129.527 120.95 129.568L121.026 129.641C122.217 130.811 122.254 131.863 120.87 130.134C120.924 130.215 120.968 130.302 120.974 130.378L121.056 130.483C122.143 131.882 121.259 131.385 120.719 130.787L120.674 130.736L120.683 130.75C121.186 131.523 120.189 130.981 120.013 130.567L120.005 130.548C119.813 130.392 119.695 130.216 119.655 130.172L119.647 130.165C118.713 129.208 117.359 128.399 116.208 128.031C116.041 128 115.873 127.974 115.702 127.956C115.01 127.802 114.311 127.696 113.604 127.639C113.518 127.629 113.43 127.566 113.365 127.484C112.296 127.448 112.626 127.01 113.069 126.929L113.077 126.928L112.989 126.92C112.303 126.853 111.835 126.607 112.528 126.457L112.616 126.439C112.606 126.422 112.596 126.405 112.587 126.389C111.993 126.323 112.38 125.747 112.71 125.886C112.571 125.433 113.205 125.659 113.284 125.592C113.345 125.525 113.42 125.466 113.463 125.463C113.654 125.328 113.561 125.341 113.66 125.336ZM117.294 118.001L117.155 118.082C117.042 118.148 116.926 118.192 116.81 118.217C116.974 118.287 117.136 118.363 117.297 118.443C117.294 118.345 117.292 118.246 117.292 118.148L117.294 118.001Z" fill="black"/>
<path fill-rule="evenodd" clip-rule="evenodd" d="M171.802 147.881C169.999 148.401 168.064 148.448 166.227 147.91C164.56 147.422 162.849 146.349 161.622 144.929C160.532 143.668 159.827 142.135 159.854 140.499C159.857 140.312 159.924 140.156 160.028 140.035C160.139 139.904 160.294 139.815 160.46 139.776C160.63 139.736 160.811 139.75 160.965 139.82C161.104 139.883 161.223 139.99 161.298 140.146C161.486 140.393 161.674 140.637 161.863 140.873C163.378 142.739 164.846 144.133 167.126 144.634C168.362 144.905 169.597 144.785 170.731 144.371C171.944 143.927 173.04 143.148 173.9 142.15C174.288 141.7 174.746 141.516 175.195 141.513C175.703 141.509 176.205 141.745 176.583 142.121C176.955 142.49 177.204 142.993 177.227 143.518C177.247 143.98 177.096 144.462 176.694 144.892C175.371 146.308 173.657 147.345 171.802 147.881ZM171.747 124.511C173.595 125.631 176.411 128.242 174.423 131.018C172.083 133.466 168.713 130.659 167.053 129.39C165.514 128.406 163.784 130.936 165.212 132.085C177.209 140.94 182.078 124.804 172.682 123.194C171.647 123.017 171.263 124.164 171.747 124.511ZM154.46 119.583C153.866 119.205 153.168 119.075 152.393 119.426C151.788 119.7 150.727 120.615 149.988 121.817C149.483 122.639 149.125 123.604 149.199 124.609C149.217 124.843 149.13 125.015 148.994 125.142C148.886 125.242 148.73 125.316 148.548 125.339C148.392 125.359 148.219 125.341 148.077 125.297C147.809 125.214 147.666 125.04 147.613 124.898C147.096 123.529 147.318 122.001 147.898 120.622C148.68 118.762 150.101 117.204 151.031 116.702C152.624 115.842 154.502 115.802 156.097 116.678C157.455 117.424 158.304 118.628 159.148 119.855C159.327 120.116 159.506 120.375 159.69 120.629C160.059 121.139 160.095 121.644 159.952 122.078C159.794 122.558 159.391 122.963 158.886 123.176C158.419 123.372 157.878 123.399 157.399 123.198C156.994 123.028 156.623 122.696 156.388 122.133C155.992 121.185 155.333 120.139 154.46 119.583ZM184.625 121.692C184.218 121.903 183.9 121.967 183.449 121.832C183.199 121.758 182.953 121.614 182.76 121.422C182.568 121.231 182.43 120.994 182.376 120.731C182.244 120.081 181.888 119.473 181.38 119.077C180.946 118.738 180.398 118.559 179.79 118.66C179.134 118.769 178.509 119.188 178.079 119.683C177.935 119.848 177.822 120.036 177.709 120.223C177.496 120.572 177.29 120.896 176.998 121.153C176.887 121.25 176.72 121.318 176.558 121.318C176.492 121.318 176.426 121.307 176.362 121.287C175.709 120.634 175.584 120.139 175.605 119.647C175.627 119.132 175.831 118.61 176.16 118.123C176.933 116.981 178.4 116.044 179.39 115.832C180.746 115.541 182.092 115.89 183.172 116.645C184.283 117.422 185.106 118.628 185.362 119.987C185.424 120.314 185.398 120.668 185.273 120.974C185.151 121.273 184.938 121.53 184.625 121.692ZM157.45 107.405C156.637 108.195 155.674 108.318 154.699 108.427C154.158 108.488 153.726 108.537 153.301 108.633C152.132 108.896 150.976 109.292 149.922 109.862C148.82 110.459 147.619 111.178 146.756 112.1C146.55 112.319 146.357 112.549 146.163 112.78C145.986 112.99 145.815 113.192 145.636 113.388C145.43 113.612 145.234 113.847 145.039 114.081C144.919 114.279 144.895 114.327 144.871 114.378C144.834 114.454 144.792 114.539 144.743 114.631C144.677 114.756 144.599 114.893 144.518 115.017C144.382 115.244 144.31 115.306 144.247 115.334C144.143 115.38 144.044 115.403 143.948 115.391C143.858 115.379 143.773 115.336 143.689 115.266C143.272 114.914 143.148 114.336 143.161 113.723C143.18 112.793 143.524 111.763 143.842 111.13C144.579 109.659 145.602 108.13 146.832 107.032C148.236 105.779 149.772 104.83 151.536 104.176C152.632 103.77 153.901 103.397 155.095 103.444C155.955 103.478 156.776 103.733 157.453 104.369C157.869 104.759 158.069 105.315 158.069 105.87C158.069 106.436 157.862 107.005 157.45 107.405ZM186.28 114.642C186.228 114.727 186.157 114.785 186.077 114.82C185.994 114.857 185.9 114.867 185.811 114.852C185.722 114.837 185.637 114.797 185.57 114.736C185.505 114.677 185.456 114.598 185.434 114.503C184.894 112.137 183.845 110.377 181.606 109.243C180.505 108.684 179.239 108.33 178.04 108.047C177.691 107.965 177.323 107.911 176.952 107.857C175.791 107.688 174.62 107.494 173.863 106.558C173.406 105.994 173.215 105.273 173.323 104.613C173.425 103.992 173.789 103.423 174.451 103.081C176.099 102.232 178.146 103.066 179.81 103.775C179.933 103.828 180.054 103.88 180.173 103.93C181.8 104.614 183.284 105.518 184.504 106.811C185.472 107.836 186.368 109.352 186.729 110.911C187.03 112.208 186.959 113.533 186.28 114.642Z" fill="black"/>
<path fill-rule="evenodd" clip-rule="evenodd" d="M172.016 134.017C169.294 132.795 164.407 133.862 162.633 134.286C158.508 135.272 154.359 137.403 153.077 140.741C151.631 144.504 154.515 145.689 154.939 145.495C157.794 145.696 161.195 143.906 164.187 143.444C166.616 143.066 169.178 142.736 171.454 141.449C173.116 142.361 176.869 142.853 179.898 143.65C182.477 144.328 183.595 145.799 185.986 145.486C188.852 145.112 187.679 139.102 184.485 136.667C180.989 134.003 175.076 132.923 172.016 134.017ZM177.405 159.713C175.024 160.292 174.864 155.089 174.597 153.251C174.388 151.815 173.213 148.112 170.234 148.272C167.254 148.432 166.134 151.534 166.285 153.464C166.383 154.715 167.54 161.054 163.848 161.856C161.494 161.847 158.77 161.689 156.295 161.234C153.382 160.576 149.594 158.274 148.594 162.809C148.233 164.441 161.066 169.29 166.76 169.729C172.535 170.895 179.292 169.102 183.404 164.697C184.339 163.695 186.973 159.537 187.161 158.518C187.556 156.377 186.642 154.999 183.985 155.754C182.108 156.753 178.936 159.341 177.405 159.713Z" fill="black"/>
<path fill-rule="evenodd" clip-rule="evenodd" d="M188.919 128.665C185.246 130.428 180.122 127.827 177.653 125.103C176.754 124.111 176.06 121.273 176.406 119.473C177.343 114.598 180.862 111.673 184.577 110.674C189.727 109.288 194.909 112.798 194.305 116.939C193.732 120.863 192.864 126.556 188.919 128.665ZM163.921 119.301C163.626 124.614 159.347 129.263 154.232 130.641C145.992 132.933 141.919 127.158 140.074 120.937C139.891 120.319 139.46 118.432 140.617 116.813C145.164 110.447 156.229 111.532 161.755 113.28C163.372 114.822 164.034 117.048 163.921 119.301ZM192.909 110.139C192.907 110.142 192.904 110.144 192.902 110.148C192.883 110.136 192.864 110.124 192.845 110.113C192.866 110.122 192.889 110.13 192.909 110.139ZM199.804 110.753C199.326 105.344 182.302 107.415 180.312 107.858C174.88 109.451 170.189 113.784 164.116 111.879C157.823 104.886 136.633 106.892 132.191 110.454C131.35 110.125 130.328 110.301 129.245 110.612C123.681 110.411 98.2833 112.323 103.478 119.402C104.267 119.947 105.054 119.392 105.076 118.269C132.158 108.523 129.532 117.652 132.744 116.586C133.235 116.727 133.746 116.816 134.194 116.909C136.68 117.707 137.524 117.46 137.851 120.242C140.101 141.724 168.795 134.31 166.442 116.689C168.772 116.561 170.81 115.557 173.274 116.538C174.985 133.137 188.384 133.806 192.416 128.053C195.457 124.059 194.251 118.032 198.43 114.89C200.08 116.266 200.187 111.621 199.804 110.753Z" fill="black"/>
</svg>
