<svg width="32" height="32" viewBox="3 0 32 32" fill="none" stroke-width="20" xmlns="http://www.w3.org/2000/svg">
<g clip-path="url(#clip0)">
<path d="M26.96 7.5461C26.96 5.58511 24.8103 4.31993 23.0876 5.33648V2.82512C23.0876 2.071 22.794 1.36156 22.2602 0.827002C20.4952 -0.935304 17.4376 0.300066 17.4376 2.82512V7.9611L14.4904 3.08718C13.7202 1.75931 12.0017 1.26875 10.6339 2.05756C9.24071 2.86181 8.83627 4.64911 9.60445 5.92392L12.5585 10.85H8.89571C7.38278 10.85 6.15722 12.0336 6.07516 13.5154C5.47228 13.722 5.0376 14.2946 5.0376 14.9669V24.2669C5.0376 28.531 8.50665 32 12.7707 32H15.3544C16.8973 32 18.6621 31.3206 19.9573 30.0267C20.2659 29.7181 20.5611 29.3899 20.8347 29.051C21.0082 28.8361 20.9746 28.5213 20.7597 28.3479C20.5449 28.1744 20.23 28.208 20.0566 28.4228C17.6577 31.3946 15.6495 31 12.7707 31C9.05808 31 6.03759 27.9795 6.03759 24.2669V14.9669C6.03759 14.6726 6.27678 14.4332 6.57072 14.4332C6.61647 14.4332 6.65628 14.4312 6.71484 14.4156C6.82053 14.455 8.55646 14.4813 9.38771 16.2142C9.72914 16.9346 9.68764 17.4718 9.68764 18.0667C9.68764 20.1434 10.5841 22.119 12.1471 23.4869C13.5794 24.7413 15.8453 24.0993 16.3942 22.2579C16.5391 21.7701 16.5028 21.6781 16.5021 19.0762C16.5006 17.9591 16.0308 16.8989 15.2101 16.1519C14.6039 15.5991 14.5526 15.5056 14.3134 15.5008C14.2723 15.4998 13.7575 15.5001 10.1398 15.5001C9.47621 14.3431 8.32246 13.6207 7.08309 13.466C7.18703 12.5517 7.96352 11.8501 8.89583 11.8501H13.8196C15.3421 11.8501 16.7736 12.4431 17.8504 13.52L21.8345 17.5041C22.1943 18.1271 22.1147 17.9514 22.1933 18.2388C22.8056 20.4907 22.7033 22.8099 21.9936 24.9C21.9048 25.1615 22.0448 25.4455 22.3063 25.5342C22.5677 25.623 22.8517 25.483 22.9405 25.2215C23.4465 23.7309 23.6677 22.1396 23.5733 20.5194C27.1709 7.0961 26.96 8.02729 26.96 7.5461ZM15.2495 17.8818C15.5845 18.6404 15.5021 19.0632 15.5027 21.5103C15.5027 22.8953 13.8604 23.6581 12.8058 22.7344C11.4596 21.5563 10.6876 19.8551 10.6876 18.0667C10.6876 17.4845 10.7093 17.0993 10.5511 16.5001H14.1079C14.6023 16.9509 14.9592 17.2251 15.2495 17.8818ZM20.2626 1.00013C21.2642 1.00013 22.0876 1.80906 22.0876 2.82512V15.9429C20.9848 14.0334 20.915 13.912 20.9187 13.9186C20.9129 13.9081 21.0323 14.1151 18.4376 9.62034V2.82512C18.4376 1.81881 19.2563 1.00013 20.2626 1.00013ZM13.7245 10.85L10.4643 5.41342C9.76295 4.19243 10.6566 2.67862 12.0444 2.67862C12.6573 2.67862 13.2553 2.97893 13.6322 3.60049C18.2828 11.2914 16.8866 8.93366 19.902 14.1574L18.5574 12.8128C17.3186 11.5739 15.6784 10.85 13.7245 10.85ZM25.906 7.95272C22.8825 19.2335 23.2029 18.1409 23.158 17.9755C23.0574 17.6082 23.0876 18.9427 23.0876 6.68129C24.0508 5.22342 26.3672 6.22673 25.906 7.95272Z" fill="#00A3FF"/>
<path d="M21.9067 26.4512C21.6628 26.3215 21.3601 26.4142 21.2305 26.658C21.1958 26.7232 21.16 26.7884 21.1236 26.8524C20.9335 27.1868 21.1776 27.5996 21.5578 27.5996C21.8915 27.5996 22.0015 27.338 22.1135 27.1274C22.2431 26.8836 22.1505 26.5809 21.9067 26.4512Z" fill="#1094DF"/>
</g>
<defs>
<clipPath id="clip0">
<rect width="32" height="32" fill="white"/>
</clipPath>
</defs>
</svg>
