<svg width="100" height="100" viewBox="0 0 100 100" fill="none" xmlns="http://www.w3.org/2000/svg">
<g clip-path="url(#clip0)">
<path d="M96.8718 46.8768H57.2895C55.5645 46.8768 54.1646 45.4768 54.1646 43.7519C54.1646 42.0269 55.5645 40.627 57.2895 40.627H96.8718C98.5968 40.627 99.9967 42.0269 99.9967 43.7519C99.9967 45.4768 98.5968 46.8768 96.8718 46.8768Z" fill="white"/>
<path d="M81.2477 62.5004C80.4474 62.5004 79.6478 62.196 79.039 61.5841C77.8184 60.3627 77.8184 58.3837 79.039 57.163L92.4557 43.7472L79.039 30.3305C77.8184 29.1099 77.8184 27.1309 79.039 25.9102C80.2605 24.6888 82.2395 24.6888 83.4601 25.9102L99.0847 41.5347C100.305 42.7554 100.305 44.7344 99.0847 45.9551L83.4601 61.5796C82.8475 62.196 82.048 62.5004 81.2477 62.5004V62.5004Z" fill="white"/>
<path d="M33.3325 100.001C32.4407 100.001 31.5946 99.8757 30.7493 99.6132L5.67457 91.2593C2.26281 90.0676 0 86.8885 0 83.3349V8.33723C0 3.74143 3.73752 0.00390625 8.33333 0.00390625C9.22441 0.00390625 10.0705 0.129024 10.9166 0.391467L35.9905 8.74539C39.4031 9.93707 41.6651 13.1161 41.6651 16.6698V91.6675C41.6651 96.2633 37.9283 100.001 33.3325 100.001ZM8.33333 6.25371C7.18743 6.25371 6.2498 7.19133 6.2498 8.33723V83.3349C6.2498 84.2222 6.84564 85.0469 7.69553 85.3429L32.6528 93.6594C32.8321 93.7174 33.0655 93.751 33.3325 93.751C34.4784 93.751 35.4153 92.8134 35.4153 91.6675V16.6698C35.4153 15.7825 34.8195 14.9578 33.9696 14.6618L9.01232 6.34526C8.83304 6.28728 8.59958 6.25371 8.33333 6.25371V6.25371Z" fill="white"/>
<path d="M63.5395 33.3365C61.8145 33.3365 60.4146 31.9365 60.4146 30.2116V11.4621C60.4146 8.59129 58.0778 6.25371 55.2069 6.25371H8.3334C6.60845 6.25371 5.2085 4.85376 5.2085 3.12881C5.2085 1.40386 6.60845 0.00390625 8.3334 0.00390625H55.2069C61.5277 0.00390625 66.6644 5.14138 66.6644 11.4621V30.2116C66.6644 31.9365 65.2644 33.3365 63.5395 33.3365Z" fill="white"/>
<path d="M55.2071 87.5005H38.5404C36.8155 87.5005 35.4155 86.1005 35.4155 84.3756C35.4155 82.6506 36.8155 81.2507 38.5404 81.2507H55.2071C58.0779 81.2507 60.4147 78.9131 60.4147 76.0423V57.2929C60.4147 55.5679 61.8147 54.168 63.5396 54.168C65.2646 54.168 66.6645 55.5679 66.6645 57.2929V76.0423C66.6645 82.363 61.5278 87.5005 55.2071 87.5005V87.5005Z" fill="white"/>
</g>
<defs>
<clipPath id="clip0">
<rect width="100" height="100" fill="white"/>
</clipPath>
</defs>
</svg>
